<?xml version="1.0" encoding="UTF-8"?>
<svg version="1.1" xmlns="http://www.w3.org/2000/svg" width="273" height="273">
<path d="M0 0 C15.31886148 0.48856451 27.9508951 5.4436011 38.86328125 16.30078125 C51.0053588 29.58327493 55.2382995 42.95117369 54.7890625 60.75390625 C54.15961961 74.67020302 48.80772475 87.60912467 39.546875 97.99609375 C35.02055921 101.99609375 35.02055921 101.99609375 32.546875 101.99609375 C32.216875 102.98609375 31.886875 103.97609375 31.546875 104.99609375 C29.12254581 106.50198088 26.78522174 107.80450727 24.234375 109.05859375 C23.51032471 109.41566406 22.78627441 109.77273437 22.0402832 110.140625 C15.96762605 113.01443075 10.28182773 114.58163512 3.546875 114.99609375 C2.63550781 115.0528125 1.72414063 115.10953125 0.78515625 115.16796875 C-5.22098906 115.3393281 -10.84204069 114.50726434 -16.7421875 113.453125 C-29.56852455 111.29075982 -39.99752895 117.26649193 -50.453125 123.99609375 C-52.89965697 125.90430834 -55.15578444 127.90760233 -57.453125 129.99609375 C-58.113125 129.99609375 -58.773125 129.99609375 -59.453125 129.99609375 C-59.68 130.51171875 -59.906875 131.02734375 -60.140625 131.55859375 C-61.25912915 133.63581574 -62.42704913 135.36218558 -63.828125 137.24609375 C-72.21870854 148.95846256 -76.20725597 163.65258032 -74.453125 177.99609375 C-71.89492513 191.41594275 -65.97410956 202.45898005 -54.68359375 210.5625 C-44.21186462 217.29301592 -32.75170327 218.69899544 -20.48828125 216.453125 C-13.36598213 214.22544554 -7.98156722 209.9093859 -2.30078125 205.23828125 C0.546875 202.99609375 0.546875 202.99609375 2.86328125 201.87890625 C4.91345106 201.05191463 4.91345106 201.05191463 5.546875 197.99609375 C7.04296875 196.52124023 7.04296875 196.52124023 8.984375 194.9296875 C14.11604051 190.57579005 18.81443299 185.83828749 23.546875 181.05859375 C24.85205078 179.74665039 24.85205078 179.74665039 26.18359375 178.40820312 C28.30701049 176.27311926 30.42803878 174.1357217 32.546875 171.99609375 C27.74918142 166.38958296 27.74918142 166.38958296 22.921875 160.80859375 C22.37273437 160.17566406 21.82359375 159.54273438 21.2578125 158.890625 C19.54955544 156.91918247 19.54955544 156.91918247 17.375 155.12890625 C14.37869396 151.63321587 14.88452951 148.28352594 15.01953125 143.85546875 C15.57980235 140.81755436 16.04135356 139.77399846 18.359375 137.80859375 C22.6684923 135.35831137 25.60137572 134.86153978 30.48364258 134.80322266 C31.70533646 134.78715973 32.92703033 134.7710968 34.18574524 134.75454712 C35.52095848 134.74305964 36.85617952 134.7324511 38.19140625 134.72265625 C39.20207437 134.71467073 39.20207437 134.71467073 40.23316002 134.7065239 C43.79971553 134.67982435 47.36623644 134.66043955 50.93286133 134.64599609 C53.87881542 134.63265973 56.82407634 134.60481039 59.76977539 134.56396484 C63.33299798 134.51456305 66.89559228 134.48986647 70.45914268 134.48276901 C72.46996385 134.47282412 74.48061778 134.43860019 76.49116516 134.40396118 C86.67507099 134.42753629 86.67507099 134.42753629 90.36499023 137.24194336 C94.70077717 142.71492226 93.75451683 148.89129643 93.09375 155.5625 C92.83946403 157.56267215 92.57334306 159.56136682 92.296875 161.55859375 C92.00967222 163.75380898 91.72323758 165.94912482 91.4375 168.14453125 C91.28861328 169.26698242 91.13972656 170.38943359 90.98632812 171.54589844 C90.54407335 175.01808982 90.15437864 178.49240139 89.78125 181.97265625 C89.65782227 183.09728271 89.53439453 184.22190918 89.40722656 185.38061523 C89.17212744 187.53553124 88.94455859 189.69128602 88.72558594 191.84790039 C87.9872636 198.39970398 86.96147827 203.37452448 82.359375 208.37109375 C78.39862916 210.65952468 76.09742469 210.42947943 71.546875 209.99609375 C69.046875 208.99609375 69.046875 208.99609375 67.546875 207.99609375 C67.546875 207.33609375 67.546875 206.67609375 67.546875 205.99609375 C66.226875 205.33609375 64.906875 204.67609375 63.546875 203.99609375 C63.546875 203.33609375 63.546875 202.67609375 63.546875 201.99609375 C62.226875 201.33609375 60.906875 200.67609375 59.546875 199.99609375 C59.546875 199.33609375 59.546875 198.67609375 59.546875 197.99609375 C58.94875 197.72796875 58.350625 197.45984375 57.734375 197.18359375 C55.57462692 196.01115908 54.18897244 194.80240093 52.546875 192.99609375 C52.340625 193.55296875 52.134375 194.10984375 51.921875 194.68359375 C50.38805817 197.26319479 48.52335729 198.73551913 46.1875 200.578125 C44.43325509 202.09429382 43.02076423 203.7080334 41.546875 205.49609375 C38.81222672 208.79480787 35.87706869 211.30359673 32.546875 213.99609375 C30.36075768 216.12615678 28.21312802 218.27816459 26.13671875 220.515625 C12.60502668 234.71226509 -5.85859859 246.63088028 -25.90625 247.1640625 C-38.32837934 247.28229506 -49.22027011 246.78329095 -60.453125 240.99609375 C-61.34 240.55136719 -62.226875 240.10664063 -63.140625 239.6484375 C-69.34006128 236.41956444 -75.37718712 232.85896757 -80.453125 227.99609375 C-80.453125 227.33609375 -80.453125 226.67609375 -80.453125 225.99609375 C-81.443125 225.66609375 -82.433125 225.33609375 -83.453125 224.99609375 C-93.26644285 214.64081751 -101.14508496 199.27904706 -102.453125 184.99609375 C-102.59492187 183.78308594 -102.73671875 182.57007813 -102.8828125 181.3203125 C-105.15777183 158.51648897 -99.40735373 135.4227361 -85.11425781 117.29833984 C-82.07348191 113.67646192 -78.81313122 110.32161311 -75.453125 106.99609375 C-74.75960937 106.28066406 -74.06609375 105.56523438 -73.3515625 104.828125 C-66.40806384 98.11250178 -57.82200473 93.68497241 -49.453125 88.99609375 C-49.90429688 88.27808594 -50.35546875 87.56007813 -50.8203125 86.8203125 C-58.1814454 74.08801803 -58.87261382 57.78408286 -56.4453125 43.51953125 C-53.80530559 34.1443886 -49.11087111 25.12703504 -42.453125 17.99609375 C-41.793125 17.99609375 -41.133125 17.99609375 -40.453125 17.99609375 C-40.20949219 17.40570312 -39.96585938 16.8153125 -39.71484375 16.20703125 C-34.8734797 7.7234026 -22.29986254 3.85205141 -13.453125 0.99609375 C-8.9166027 -0.07799462 -4.64110962 -0.00525012 0 0 Z " fill="#F44D39" transform="translate(151.453125,10.00390625)"/>
<path d="M0 0 C0 7.21470206 -3.44421155 13.15358196 -6.90234375 19.24804688 C-13.17941008 31.07423077 -14.69268111 44.05985066 -14.57641602 57.23901367 C-14.56234338 59.46224327 -14.59705652 61.68140591 -14.63476562 63.90429688 C-14.67975642 72.13194625 -13.89384232 78.15438775 -9 85 C-8.3412899 86.18675518 -7.699481 87.38311115 -7.078125 88.58984375 C2.82031271 106.71582904 17.10750737 119.14400523 36.96484375 125.45703125 C54.89686509 130.24119817 72.21775105 126.07534062 88.046875 117.17529297 C100.75077441 109.5307215 111.51891753 98.71830222 121.72265625 88.1015625 C123.50226598 86.27571198 125.28222358 84.45020048 127.0625 82.625 C128.40924805 81.21541016 128.40924805 81.21541016 129.78320312 79.77734375 C130.65009766 78.89433594 131.51699219 78.01132813 132.41015625 77.1015625 C133.58783569 75.88460693 133.58783569 75.88460693 134.78930664 74.64306641 C137 73 137 73 139.16625977 73.14355469 C141.57010701 74.26626753 143.03722947 75.71342343 144.875 77.625 C145.57496094 78.33914062 146.27492187 79.05328125 146.99609375 79.7890625 C148.80304866 81.78270086 150.34994945 83.83314827 151.9375 86 C153.68529325 88.09256343 154.56895298 88.88902993 157.23046875 89.57421875 C161.07008285 89.75586444 163.10861951 89.67707647 166.2421875 87.296875 C168.39922852 84.4783414 168.46260366 83.08243008 168.5 79.5625 C168.78702275 73.13024668 169.81900604 67.00238394 171.0625 60.6875 C171.24941406 59.7375415 171.43632812 58.78758301 171.62890625 57.80883789 C172.08036742 55.53804629 172.53704018 53.26847093 173 51 C173.66 51 174.32 51 175 51 C175 48.69 175 46.38 175 44 C175.33 44 175.66 44 176 44 C176.21835686 49.67727836 175.5855644 54.79066836 174.56640625 60.37109375 C174.12663306 63.18867506 173.78989093 65.94953522 173.52734375 68.78515625 C173.44919434 69.62457764 173.37104492 70.46399902 173.29052734 71.32885742 C173.14144424 72.99351229 173.00203674 74.65906946 172.87353516 76.32543945 C172.32741835 82.35084491 171.02030528 86.8065257 166.8125 91.375 C162.85175416 93.66343093 160.55054969 93.43338568 156 93 C153.5 92 153.5 92 152 91 C152 90.34 152 89.68 152 89 C150.68 88.34 149.36 87.68 148 87 C148 86.34 148 85.68 148 85 C146.68 84.34 145.36 83.68 144 83 C144 82.34 144 81.68 144 81 C143.401875 80.731875 142.80375 80.46375 142.1875 80.1875 C140.02775192 79.01506533 138.64209744 77.80630718 137 76 C136.79375 76.556875 136.5875 77.11375 136.375 77.6875 C134.84118317 80.26710104 132.97648229 81.73942538 130.640625 83.58203125 C128.88638009 85.09820007 127.47388923 86.71193965 126 88.5 C123.26535172 91.79871412 120.33019369 94.30750298 117 97 C114.81388268 99.13006303 112.66625302 101.28207084 110.58984375 103.51953125 C97.05815168 117.71617134 78.59452641 129.63478653 58.546875 130.16796875 C46.12474566 130.28620131 35.23285489 129.7871972 24 124 C23.113125 123.55527344 22.22625 123.11054688 21.3125 122.65234375 C15.11306372 119.42347069 9.07593788 115.86287382 4 111 C4 110.34 4 109.68 4 109 C2.515 108.505 2.515 108.505 1 108 C-8.81331785 97.64472376 -16.69195996 82.28295331 -18 68 C-18.14179687 66.78699219 -18.28359375 65.57398438 -18.4296875 64.32421875 C-20.70361539 41.53073421 -14.60623752 20.92173962 -2 2 C-1.34 1.34 -0.68 0.68 0 0 Z " fill="#C51D12" transform="translate(67,127)"/>
<path d="M0 0 C0.99 0 1.98 0 3 0 C0.48596815 9.32838134 -4.65413134 18.53871238 -12 25 C-13.04800781 25.2475 -13.04800781 25.2475 -14.1171875 25.5 C-14.73851562 25.665 -15.35984375 25.83 -16 26 C-16.495 27.485 -16.495 27.485 -17 29 C-19.42432919 30.50588713 -21.76165326 31.80841352 -24.3125 33.0625 C-25.03655029 33.41957031 -25.76060059 33.77664062 -26.5065918 34.14453125 C-32.57924895 37.018337 -38.26504727 38.58554137 -45 39 C-45.91136719 39.05671875 -46.82273437 39.1134375 -47.76171875 39.171875 C-53.76786406 39.34323435 -59.38891569 38.51117059 -65.2890625 37.45703125 C-78.11539955 35.29466607 -88.54440395 41.27039818 -99 48 C-101.44653197 49.90821459 -103.70265944 51.91150858 -106 54 C-106.66 54 -107.32 54 -108 54 C-108.226875 54.515625 -108.45375 55.03125 -108.6875 55.5625 C-109.80600415 57.63972199 -110.97392413 59.36609183 -112.375 61.25 C-115.09043382 64.96458455 -117.03220575 68.84576769 -119 73 C-119.33 73 -119.66 73 -120 73 C-120.55989897 64.86359584 -115.99359558 59.61556592 -110.98828125 53.5703125 C-101.44973529 43.37940758 -87.1354214 34.6021867 -73 33 C-69.87771162 33.25592528 -67.09692703 33.69575718 -64.08813477 34.53027344 C-49.10137931 37.90154872 -33.51872151 34.75518527 -20.71875 26.8046875 C-10.86159789 20.26157791 -4.06938157 11.19079933 0 0 Z " fill="#C41C11" transform="translate(200,86)"/>
<path d="M0 0 C1.22169388 -0.01606293 2.44338776 -0.03212585 3.70210266 -0.04867554 C5.0373159 -0.06016302 6.37253695 -0.07077156 7.70776367 -0.08056641 C8.71843179 -0.08855192 8.71843179 -0.08855192 9.74951744 -0.09669876 C13.31607295 -0.1233983 16.88259386 -0.14278311 20.44921875 -0.15722656 C23.39517284 -0.17056293 26.34043376 -0.19841227 29.28613281 -0.23925781 C32.8493554 -0.2886596 36.4119497 -0.31335618 39.97550011 -0.32045364 C41.98632127 -0.33039854 43.9969752 -0.36462247 46.00752258 -0.39926147 C56.18767074 -0.37569506 56.18767074 -0.37569506 59.88842773 2.58251953 C62.12088957 5.26207521 62.85750725 6.39192491 63.00073242 9.81787109 C63.0394043 10.67380859 63.07807617 11.52974609 63.11791992 12.41162109 C63.02698823 17.03614737 62.6303044 21.60395013 62.06323242 26.19287109 C61.56823242 25.20287109 61.56823242 25.20287109 61.06323242 24.19287109 C60.40323242 24.19287109 59.74323242 24.19287109 59.06323242 24.19287109 C59.08643555 23.15646484 59.10963867 22.12005859 59.13354492 21.05224609 C59.15230909 19.68246165 59.1705086 18.31266939 59.18823242 16.94287109 C59.21336914 15.92 59.21336914 15.92 59.23901367 14.87646484 C59.27508291 11.1613336 59.25135978 8.28379225 57.06323242 5.19287109 C53.79007734 3.55629355 50.15701012 3.94979039 46.55541992 3.87646484 C45.71480011 3.85568375 44.8741803 3.83490265 44.00808716 3.81349182 C41.31822007 3.7480167 38.628254 3.6891209 35.93823242 3.63037109 C34.11660753 3.58718393 32.29499271 3.54356958 30.47338867 3.49951172 C26.00343848 3.39233741 21.53338856 3.29106424 17.06323242 3.19287109 C17.06323242 2.53287109 17.06323242 1.87287109 17.06323242 1.19287109 C4.68823242 1.68787109 4.68823242 1.68787109 -7.93676758 2.19287109 C-7.93676758 3.18287109 -7.93676758 4.17287109 -7.93676758 5.19287109 C-8.59676758 5.79099609 -9.25676758 6.38912109 -9.93676758 7.00537109 C-12.13574334 9.06229824 -12.13574334 9.06229824 -12.62426758 11.94287109 C-11.72374948 16.19986573 -9.63988057 18.18424889 -6.69458008 21.29052734 C-4.73023316 23.41638723 -3.29307523 25.6398214 -1.93676758 28.19287109 C-2.59676758 28.85287109 -3.25676758 29.51287109 -3.93676758 30.19287109 C-4.39567383 29.66177734 -4.85458008 29.13068359 -5.32739258 28.58349609 C-6.2477832 27.52388672 -6.2477832 27.52388672 -7.18676758 26.44287109 C-7.79004883 25.74677734 -8.39333008 25.05068359 -9.01489258 24.33349609 C-10.8966538 22.14650239 -10.8966538 22.14650239 -13.13208008 20.29833984 C-16.11154887 16.82229292 -15.59828733 13.45321901 -15.46411133 9.05224609 C-14.90384023 6.0143317 -14.44228902 4.97077581 -12.12426758 3.00537109 C-7.81515028 0.55508871 -4.88226686 0.05831713 0 0 Z " fill="#83150F" transform="translate(181.936767578125,144.80712890625)"/>
<path d="M0 0 C4.43090471 1.20842856 6.98112756 2.51668565 10 6 C8.63205626 9.10572794 7.11204915 11.08035376 4.61328125 13.36328125 C3.92967529 13.99548584 3.24606934 14.62769043 2.54174805 15.27905273 C1.80609619 15.95009033 1.07044434 16.62112793 0.3125 17.3125 C-5.54538163 22.72173513 -11.24496524 28.23063097 -16.8125 33.9375 C-33.04388879 50.4241128 -33.04388879 50.4241128 -40 51 C-40.66 50.34 -41.32 49.68 -42 49 C-41.443125 48.64808594 -40.88625 48.29617187 -40.3125 47.93359375 C-35.36831643 44.73490742 -30.9351323 41.33945682 -26.62890625 37.3203125 C-25 36 -25 36 -23 36 C-22.67 35.01 -22.34 34.02 -22 33 C-20.50390625 31.52514648 -20.50390625 31.52514648 -18.5625 29.93359375 C-13.43083449 25.5796963 -8.73244201 20.84219374 -4 16.0625 C-3.12988281 15.18787109 -2.25976562 14.31324219 -1.36328125 13.41210938 C0.76013549 11.27702551 2.88116378 9.13962795 5 7 C3.35 4.69 1.7 2.38 0 0 Z " fill="#9F1C14" transform="translate(179,175)"/>
<path d="M0 0 C0 5.74195879 -2.13085801 10.53990906 -4.81835938 15.48706055 C-14.62497754 33.58897195 -14.52759726 50.98377178 -14 71 C-14.66 71 -15.32 71 -16 71 C-16 70.01 -16 69.02 -16 68 C-16.66 68 -17.32 68 -18 68 C-20.61476888 43.67949913 -15.59663381 22.40830694 -2 2 C-1.34 1.34 -0.68 0.68 0 0 Z " fill="#CB2217" transform="translate(67,127)"/>
<path d="M0 0 C11.95518894 4.26062584 21.52905331 15.36606651 26.9375 26.5625 C32.52962698 40.27285271 32.45697734 55.70910262 29 70 C28.67 70 28.34 70 28 70 C27.9906543 69.18958252 27.98130859 68.37916504 27.97167969 67.54418945 C27.92705763 64.47029869 27.86518245 61.39731991 27.79248047 58.32397461 C27.7511426 56.36660295 27.72881633 54.40885878 27.70703125 52.45117188 C27.31341088 36.98189141 22.80274794 23.31716451 12 12 C9.40635834 9.8933278 6.71371443 7.94774665 4 6 C2.32655239 4.67518731 0.65651812 3.34592097 -1 2 C-0.67 1.34 -0.34 0.68 0 0 Z " fill="#BD2016" transform="translate(175,16)"/>
<path d="M0 0 C5.76573685 -0.09891077 11.5309794 -0.17148845 17.29736328 -0.21972656 C19.25871381 -0.23983632 21.22000444 -0.26712818 23.18115234 -0.30175781 C26.00112695 -0.35030421 28.82030865 -0.37297486 31.640625 -0.390625 C32.95489471 -0.42159271 32.95489471 -0.42159271 34.29571533 -0.45318604 C40.38598748 -0.45542846 40.38598748 -0.45542846 43.54467773 1.88745117 C47.90403698 8.21550612 45.8891104 17.80504504 45 25 C44.505 24.01 44.505 24.01 44 23 C43.34 23 42.68 23 42 23 C42.02320313 21.96359375 42.04640625 20.9271875 42.0703125 19.859375 C42.08907667 18.48959056 42.10727618 17.1197983 42.125 15.75 C42.14175781 15.06808594 42.15851563 14.38617188 42.17578125 13.68359375 C42.21185049 9.9684625 42.18812735 7.09092116 40 4 C36.72684491 2.36342246 33.09377769 2.7569193 29.4921875 2.68359375 C28.65156769 2.66281265 27.81094788 2.64203156 26.94485474 2.62062073 C24.25498765 2.55514561 21.56502157 2.4962498 18.875 2.4375 C17.05337511 2.39431284 15.23176029 2.35069848 13.41015625 2.30664062 C8.94020606 2.19946632 4.47015614 2.09819315 0 2 C0 1.34 0 0.68 0 0 Z " fill="#F0261C" transform="translate(199,146)"/>
<path d="M0 0 C0.79664062 0.42152344 1.59328125 0.84304687 2.4140625 1.27734375 C4.00347656 2.09912109 4.00347656 2.09912109 5.625 2.9375 C6.66914062 3.48277344 7.71328125 4.02804688 8.7890625 4.58984375 C18.84218404 9.00490078 31.64058882 7.90790489 42 5 C41.67 5.66 41.34 6.32 41 7 C40.01 7 39.02 7 38 7 C38 7.99 38 8.98 38 10 C25.94031179 13.64066059 16.15621734 12.03812662 4.71484375 6.9921875 C3 6 3 6 2 4 C1.01 3.67 0.02 3.34 -1 3 C-0.67 2.01 -0.34 1.02 0 0 Z " fill="#B22319" transform="translate(95,220)"/>
<path d="M0 0 C-1.875 1.0625 -1.875 1.0625 -4 2 C-4.66 1.67 -5.32 1.34 -6 1 C-6 0.34 -6 -0.32 -6 -1 C-6.98742187 -0.81566406 -7.97484375 -0.63132812 -8.9921875 -0.44140625 C-13.17765446 0.15576531 -16.96981766 -0.30518964 -21.125 -0.9375 C-25.43358364 -1.56164062 -29.63327448 -2.14442477 -34 -2 C-34.33 -1.34 -34.66 -0.68 -35 0 C-37.16072227 0.78623891 -39.35490875 1.48201226 -41.5625 2.125 C-42.76003906 2.47820313 -43.95757812 2.83140625 -45.19140625 3.1953125 C-46.58166016 3.59363281 -46.58166016 3.59363281 -48 4 C-48 3.34 -48 2.68 -48 2 C-48.66 1.67 -49.32 1.34 -50 1 C-33.07908706 -6.18740973 -17.35437817 -6.94821472 0 0 Z " fill="#AB1F12" transform="translate(175,15)"/>
<path d="M0 0 C0.66 0.33 1.32 0.66 2 1 C0.49235345 5.22141034 -2.21292869 6.80349864 -6 9 C-8.375 9.75 -8.375 9.75 -10 10 C-10.09925781 10.57621094 -10.19851562 11.15242188 -10.30078125 11.74609375 C-11.13630294 14.43936759 -12.36866494 15.91442769 -14.1875 18.0625 C-18.18443892 23.01738296 -21.11379597 28.34388587 -24 34 C-24.66 34 -25.32 34 -26 34 C-26.33 34.99 -26.66 35.98 -27 37 C-26.43369188 32.11186672 -24.96086198 28.38327418 -22.75 24 C-21.87601562 22.2365625 -21.87601562 22.2365625 -20.984375 20.4375 C-18.90433108 16.83427432 -16.83115553 14.03470266 -14 11 C-13.34 11 -12.68 11 -12 11 C-11.77570313 10.41734375 -11.55140625 9.8346875 -11.3203125 9.234375 C-9.62194647 6.3602171 -7.64165926 5.0944395 -4.875 3.25 C-3.96492188 2.63640625 -3.05484375 2.0228125 -2.1171875 1.390625 C-1.41851562 0.93171875 -0.71984375 0.4728125 0 0 Z " fill="#B81F16" transform="translate(123,17)"/>
<path d="M0 0 C0.495 0.99 0.495 0.99 1 2 C0.34 2 -0.32 2 -1 2 C-1.33 2.99 -1.66 3.98 -2 5 C-2.598125 5.144375 -3.19625 5.28875 -3.8125 5.4375 C-6.11902961 5.83286938 -6.11902961 5.83286938 -7.6875 7.6875 C-9.7855624 9.7855624 -11.63852494 11.11433476 -14.125 12.6875 C-18.73988547 15.67270645 -22.65437817 19.1779166 -26.640625 22.94921875 C-28.97063942 24.97447963 -31.30997033 26.49758981 -34 28 C-34 24.36761053 -32.88760306 23.4545711 -30.44433594 20.92578125 C-29.66751465 20.15814453 -29.66751465 20.15814453 -28.875 19.375 C-28.34165039 18.84519531 -27.80830078 18.31539062 -27.25878906 17.76953125 C-19.35456738 10.18074698 -9.92686023 4.56635571 0 0 Z " fill="#BD1F15" transform="translate(103,99)"/>
<path d="M0 0 C0.66 0 1.32 0 2 0 C1.58679434 3.92545375 1.21012128 7.38199622 -0.0625 11.125 C-2.89698747 22.84088153 -0.2772445 33.73447203 3 45 C2.34 44.67 1.68 44.34 1 44 C0.375 41.4375 0.375 41.4375 0 39 C-0.66 39 -1.32 39 -2 39 C-7.72832451 29.45279248 -5.28754793 15.86478303 -2.8515625 5.71484375 C-2 3 -2 3 0 0 Z " fill="#D22619" transform="translate(78,159)"/>
<path d="M0 0 C0.63719971 0.17644043 1.27439941 0.35288086 1.9309082 0.53466797 C4.23437768 1.05271078 6.30773641 1.12949124 8.66796875 1.1328125 C10.00891602 1.13474609 10.00891602 1.13474609 11.37695312 1.13671875 C12.30443359 1.13285156 13.23191406 1.12898438 14.1875 1.125 C15.09564453 1.12886719 16.00378906 1.13273437 16.93945312 1.13671875 C22.7042248 1.12846568 28.28215052 0.735903 34 0 C33.67 0.99 33.34 1.98 33 3 C22.04656125 5.14098628 12.04792665 5.44890841 1 4 C1 3.34 1 2.68 1 2 C-2.63 1.67 -6.26 1.34 -10 1 C-6.10748944 -1.59500704 -4.4869469 -0.86590203 0 0 Z " fill="#D21A0E" transform="translate(134,120)"/>
<path d="M0 0 C0.98291016 0.00322266 1.96582031 0.00644531 2.97851562 0.00976562 C4.51475586 0.02233398 4.51475586 0.02233398 6.08203125 0.03515625 C7.11779297 0.03966797 8.15355469 0.04417969 9.22070312 0.04882812 C11.77870391 0.06061615 14.33658858 0.0770711 16.89453125 0.09765625 C16.89453125 0.75765625 16.89453125 1.41765625 16.89453125 2.09765625 C25.14453125 2.09765625 33.39453125 2.09765625 41.89453125 2.09765625 C41.89453125 2.42765625 41.89453125 2.75765625 41.89453125 3.09765625 C25.39453125 3.09765625 8.89453125 3.09765625 -8.10546875 3.09765625 C-8.10546875 2.43765625 -8.10546875 1.77765625 -8.10546875 1.09765625 C-5.10530963 0.09760321 -3.13123119 -0.0180996 0 0 Z " fill="#F43B27" transform="translate(182.10546875,145.90234375)"/>
<path d="M0 0 C0.66 0 1.32 0 2 0 C3.05836661 3.17509982 3.20243789 5.64282383 3.31640625 8.98046875 C3.35830078 10.14384766 3.40019531 11.30722656 3.44335938 12.50585938 C3.48267578 13.72080078 3.52199219 14.93574219 3.5625 16.1875 C3.60568359 17.41404297 3.64886719 18.64058594 3.69335938 19.90429688 C3.7995309 22.93608381 3.90157952 25.96795315 4 29 C3.34 29 2.68 29 2 29 C2 28.01 2 27.02 2 26 C1.34 26 0.68 26 0 26 C-1.33257403 8.14350797 -1.33257403 8.14350797 0 0 Z " fill="#F22E22" transform="translate(49,169)"/>
<path d="M0 0 C0.33 0.99 0.66 1.98 1 3 C1.66 3 2.32 3 3 3 C2.95617188 3.74121094 2.91234375 4.48242188 2.8671875 5.24609375 C3.01176194 8.24388725 3.57650482 9.53523899 5.125 12.0625 C8.37115709 17.56887535 11.17747473 23.26765486 14 29 C12.68 29 11.36 29 10 29 C0 10.04651163 0 10.04651163 0 0 Z " fill="#C42117" transform="translate(50,195)"/>
<path d="M0 0 C0.33 0 0.66 0 1 0 C1.08302368 0.92111572 1.08302368 0.92111572 1.16772461 1.86083984 C1.42381969 4.6989383 1.68065639 7.53696919 1.9375 10.375 C2.02451172 11.34050781 2.11152344 12.30601563 2.20117188 13.30078125 C2.28818359 14.26113281 2.37519531 15.22148438 2.46484375 16.2109375 C2.54976074 17.1709668 2.63467773 18.13099609 2.72216797 19.12011719 C2.90790844 21.04541996 3.12066917 22.96830049 3.35986328 24.88769531 C3.46927246 25.78327148 3.57868164 26.67884766 3.69140625 27.6015625 C3.79783447 28.40158691 3.9042627 29.20161133 4.01391602 30.02587891 C4 32 4 32 2 34 C0.05833982 29.02300981 -0.44920315 24.52128112 -0.6875 19.25 C-0.7280249 18.4573877 -0.7685498 17.66477539 -0.81030273 16.84814453 C-1.05890299 11.12858381 -0.82389706 5.67573533 0 0 Z " fill="#BC2318" transform="translate(95,54)"/>
<path d="M0 0 C-1.21824494 4.60225865 -3.57708173 6.52553578 -7.12890625 9.390625 C-10.10730768 11.95242331 -12.49995186 14.98244918 -15 18 C-17.125 20.5 -17.125 20.5 -19 22 C-21.25 21.75 -21.25 21.75 -23 21 C-22.34386719 20.34644531 -21.68773437 19.69289062 -21.01171875 19.01953125 C-18.68777882 16.69722962 -16.3835375 14.3562438 -14.08203125 12.01171875 C-12.65895533 10.57021262 -11.23577606 9.12880852 -9.8125 7.6875 C-9.08869141 6.94693359 -8.36488281 6.20636719 -7.61914062 5.44335938 C-6.92626953 4.74404297 -6.23339844 4.04472656 -5.51953125 3.32421875 C-4.89151611 2.68572998 -4.26350098 2.04724121 -3.61645508 1.3894043 C-2 0 -2 0 0 0 Z " fill="#D11B0C" transform="translate(201,205)"/>
<path d="M0 0 C6.33333333 6.33333333 12.66666667 12.66666667 19 19 C11.16901408 17.04225352 11.16901408 17.04225352 8 14 C8 13.34 8 12.68 8 12 C7.01 11.67 6.02 11.34 5 11 C3.359375 9.2578125 3.359375 9.2578125 1.75 7.125 C1.20859375 6.42632812 0.6671875 5.72765625 0.109375 5.0078125 C-0.25671875 4.34523437 -0.6228125 3.68265625 -1 3 C-0.67 2.01 -0.34 1.02 0 0 Z " fill="#C31A11" transform="translate(63,224)"/>
<path d="M0 0 C2.46800047 1.15173355 4.04783565 2.04783565 6 4 C7.56567858 10.95705874 6.86533258 17.99746254 6 25 C5.67 24.34 5.34 23.68 5 23 C4.34 23 3.68 23 3 23 C3.03480469 21.97519531 3.06960937 20.95039063 3.10546875 19.89453125 C3.13362035 18.53387064 3.16091904 17.1731922 3.1875 15.8125 C3.21263672 15.13896484 3.23777344 14.46542969 3.26367188 13.77148438 C3.33028584 9.21953026 2.52412185 6.72987035 0 3 C0 2.01 0 1.02 0 0 Z " fill="#CF1E13" transform="translate(238,146)"/>
<path d="M0 0 C0.66 0.33 1.32 0.66 2 1 C2.28951652 6.59731932 2.18452849 10.1683016 -1 15 C-3.24195824 17.43412609 -4.7562385 18.85666689 -8.1015625 19.2421875 C-10.0693527 19.24914082 -12.03670436 19.13310479 -14 19 C-11.50354521 16.50354521 -9.18256683 15.94292131 -5.875 14.87890625 C-3.64732994 14.03211154 -3.64732994 14.03211154 -2 11 C-1.55888435 9.11845117 -1.1890733 7.21937362 -0.875 5.3125 C-0.70742187 4.31863281 -0.53984375 3.32476562 -0.3671875 2.30078125 C-0.24601563 1.54152344 -0.12484375 0.78226563 0 0 Z " fill="#BA1209" transform="translate(237,201)"/>
<path d="M0 0 C0.66 0.33 1.32 0.66 2 1 C1.63648437 1.44988281 1.27296875 1.89976563 0.8984375 2.36328125 C-3.43099919 7.90273999 -6.76858171 13.76634203 -10 20 C-10.66 20 -11.32 20 -12 20 C-12.33 20.99 -12.66 21.98 -13 23 C-12.01618532 15.23365116 -8.79375919 6.8637695 -2.625 1.75 C-1.75875 1.1725 -0.8925 0.595 0 0 Z " fill="#D82116" transform="translate(109,31)"/>
<path d="M0 0 C0.66 0 1.32 0 2 0 C1.58810988 3.91295611 1.17925549 7.42862314 0 11.1875 C-1.45277522 16.72620552 -1.67417293 22.29802621 -2 28 C-2.33 28 -2.66 28 -3 28 C-5.18467337 7.77701005 -5.18467337 7.77701005 0 0 Z " fill="#BB1F12" transform="translate(78,159)"/>
<path d="M0 0 C-1.32 0.33 -2.64 0.66 -4 1 C-4 1.99 -4 2.98 -4 4 C-10.46008837 5.95021536 -16.2718373 6.22262303 -23 6 C-22.34 5.67 -21.68 5.34 -21 5 C-21 4.34 -21 3.68 -21 3 C-17.04 3 -13.08 3 -9 3 C-9 2.34 -9 1.68 -9 1 C-2.25 -1.125 -2.25 -1.125 0 0 Z " fill="#D52D20" transform="translate(137,226)"/>
<path d="M0 0 C0.33 0.66 0.66 1.32 1 2 C0.34 2 -0.32 2 -1 2 C-1.33 2.99 -1.66 3.98 -2 5 C-2.598125 5.144375 -3.19625 5.28875 -3.8125 5.4375 C-6.14756411 5.84020682 -6.14756411 5.84020682 -7.8125 7.8125 C-10.60968863 10.60968863 -13.52158149 12.12700542 -17 14 C-17.33 12.68 -17.66 11.36 -18 10 C-15.37532366 8.5202565 -12.75027507 7.04118057 -10.125 5.5625 C-9.37863281 5.14162109 -8.63226563 4.72074219 -7.86328125 4.28710938 C-6.79013672 3.68286133 -6.79013672 3.68286133 -5.6953125 3.06640625 C-5.03547363 2.69459229 -4.37563477 2.32277832 -3.69580078 1.93969727 C-2.47885349 1.26534798 -1.24441397 0.62220698 0 0 Z " fill="#C5251B" transform="translate(103,99)"/>
<path d="M0 0 C3.40235998 3.23224198 6.16923393 6.94266136 9.0625 10.625 C10.62944607 12.5457726 12.20602511 14.29572385 14 16 C12.2578125 16.72265625 12.2578125 16.72265625 10 17 C5.04687086 13.55150066 1.11986904 9.01929608 0 3 C0 2.01 0 1.02 0 0 Z " fill="#B01D11" transform="translate(81,204)"/>
<path d="M0 0 C4.43090471 1.20842856 6.98112756 2.51668565 10 6 C8.61811547 9.21043882 7.07578097 11.04936365 4.375 13.25 C3.74335938 13.77078125 3.11171875 14.2915625 2.4609375 14.828125 C1.97882813 15.21484375 1.49671875 15.6015625 1 16 C1 12.41087588 1.66436554 11.89142971 4 9.3125 C4.556875 8.68988281 5.11375 8.06726563 5.6875 7.42578125 C6.120625 6.95527344 6.55375 6.48476562 7 6 C6.37609375 5.71382812 5.7521875 5.42765625 5.109375 5.1328125 C2.63533198 3.80415977 1.54215535 2.31323302 0 0 Z " fill="#DB2B1F" transform="translate(179,175)"/>
<path d="M0 0 C-0.33 0.99 -0.66 1.98 -1 3 C-3.94140625 4.16796875 -3.94140625 4.16796875 -7.5625 5.1875 C-9.35880859 5.70376953 -9.35880859 5.70376953 -11.19140625 6.23046875 C-12.58166016 6.61138672 -12.58166016 6.61138672 -14 7 C-14 6.34 -14 5.68 -14 5 C-14.66 4.67 -15.32 4.34 -16 4 C-5.62642369 -0.59225513 -5.62642369 -0.59225513 0 0 Z " fill="#C6281C" transform="translate(141,12)"/>
<path d="M0 0 C6.34282659 1.84436801 12.62396275 4.06397273 18 8 C18.33 8.99 18.66 9.98 19 11 C15.47363856 10.30969811 12.6491962 8.89619849 9.5 7.1875 C8.09234375 6.43533203 8.09234375 6.43533203 6.65625 5.66796875 C4.03356945 4.02107964 2.08958736 2.27193343 0 0 Z " fill="#B7170F" transform="translate(76,241)"/>
<path d="M0 0 C0.33 0 0.66 0 1 0 C2.30512614 8.80960142 2.30512614 17.19039858 1 26 C0.67 26 0.34 26 0 26 C-1.33257403 8.14350797 -1.33257403 8.14350797 0 0 Z " fill="#9D251A" transform="translate(49,169)"/>
<path d="M0 0 C1.3805087 3.76668598 0.59568159 6.44789173 -0.4375 10.25 C-0.72496094 11.32765625 -1.01242188 12.4053125 -1.30859375 13.515625 C-1.53675781 14.33546875 -1.76492187 15.1553125 -2 16 C-4.36574234 12.4513865 -4.10865265 11.4235475 -3.625 7.3125 C-3.51414063 6.31863281 -3.40328125 5.32476562 -3.2890625 4.30078125 C-3.19367187 3.54152344 -3.09828125 2.78226563 -3 2 C-2.01 2 -1.02 2 0 2 C0 1.34 0 0.68 0 0 Z " fill="#CD2218" transform="translate(54,156)"/>
<path d="M0 0 C0 4.89951609 -1.29108405 8.93662608 -4 13 C-4.99 13 -5.98 13 -7 13 C-6.65986985 7.55791766 -3.29703472 4.06331802 0 0 Z " fill="#AB271C" transform="translate(67,127)"/>
<path d="M0 0 C0.33 0 0.66 0 1 0 C1.26404456 6.86515862 0.25841946 13.25846717 -1 20 C-2.9078584 16.8250906 -3.1609041 14.89414789 -2.625 11.25 C-2.51414063 10.45078125 -2.40328125 9.6515625 -2.2890625 8.828125 C-2.19367188 8.22484375 -2.09828125 7.6215625 -2 7 C-1.34 7 -0.68 7 0 7 C0 4.69 0 2.38 0 0 Z " fill="#AA1910" transform="translate(242,171)"/>
<path d="M0 0 C0.33 0.99 0.66 1.98 1 3 C1.66 3 2.32 3 3 3 C2.938125 3.70125 2.87625 4.4025 2.8125 5.125 C3.04256101 8.65260212 4.29200568 10.93984351 6 14 C5.01 15.485 5.01 15.485 4 17 C1.16625922 11.33251843 0.36776168 6.30267439 0 0 Z " fill="#A32212" transform="translate(50,195)"/>
<path d="M0 0 C2.41103827 0.96441531 3.77404758 1.68797047 5.3125 3.8125 C6.17031512 6.54191176 5.75644808 8.27678692 5 11 C1.7089159 7.39042389 0.45336079 4.87362847 0 0 Z " fill="#B81E10" transform="translate(98,88)"/>
<path d="M0 0 C3.96 1.98 7.92 3.96 12 6 C8.49270578 7.16909807 6.55692677 6.85056945 3 6 C2.67 5.34 2.34 4.68 2 4 C1.01 3.67 0.02 3.34 -1 3 C-0.67 2.01 -0.34 1.02 0 0 Z " fill="#A91F15" transform="translate(95,220)"/>
<path d="M0 0 C0 3 0 3 -1.53125 4.60546875 C-2.1809375 5.12753906 -2.830625 5.64960938 -3.5 6.1875 C-4.1496875 6.71730469 -4.799375 7.24710938 -5.46875 7.79296875 C-5.9740625 8.19128906 -6.479375 8.58960938 -7 9 C-7 5.35521088 -6.14197494 3.90696599 -4 1 C-1.8125 0.1875 -1.8125 0.1875 0 0 Z " fill="#DB281E" transform="translate(161,207)"/>
<path d="M0 0 C0.66 0.33 1.32 0.66 2 1 C2.125 8.625 2.125 8.625 1 12 C-0.32 12.33 -1.64 12.66 -3 13 C-2.01 8.71 -1.02 4.42 0 0 Z " fill="#C4190E" transform="translate(237,201)"/>
<path d="M0 0 C0.33 0 0.66 0 1 0 C1.12375 1.11375 1.2475 2.2275 1.375 3.375 C1.6465813 7.03103677 1.6465813 7.03103677 4 9 C3.625 12.625 3.625 12.625 3 16 C0.2656934 13.2656934 0.04659335 11.23006445 -0.09765625 7.421875 C-0.08025391 6.09929687 -0.08025391 6.09929687 -0.0625 4.75 C-0.05347656 3.85796875 -0.04445313 2.9659375 -0.03515625 2.046875 C-0.02355469 1.37140625 -0.01195313 0.6959375 0 0 Z " fill="#A91C11" transform="translate(95,72)"/>
<path d="M0 0 C4.44 -0.36 4.44 -0.36 6.75 1.125 C8.43985241 3.65977861 8.66730609 6.00575483 9 9 C7.87105124 8.06725891 6.74699124 7.12859878 5.625 6.1875 C4.99851563 5.66542969 4.37203125 5.14335937 3.7265625 4.60546875 C2 3 2 3 0 0 Z " fill="#CB2518" transform="translate(183,24)"/>
<path d="M0 0 C3.94139078 1.66751148 6.7892812 4.22710649 10 7 C9.01 7.495 9.01 7.495 8 8 C6.0546875 7.22265625 6.0546875 7.22265625 3.875 6.0625 C3.15054688 5.68222656 2.42609375 5.30195313 1.6796875 4.91015625 C1.12539062 4.60980469 0.57109375 4.30945313 0 4 C0 2.68 0 1.36 0 0 Z " fill="#DE2116" transform="translate(72,235)"/>
<path d="M0 0 C0 3.19610552 -0.54671542 4.41717626 -2 7.1875 C-2.37125 7.90292969 -2.7425 8.61835938 -3.125 9.35546875 C-3.41375 9.89816406 -3.7025 10.44085938 -4 11 C-4.33 11 -4.66 11 -5 11 C-5.17615457 7.12459955 -5.28341107 4.24484731 -3 1 C-2.01 0.67 -1.02 0.34 0 0 Z " fill="#BE1A11" transform="translate(85,148)"/>
<path d="M0 0 C2.46800047 1.15173355 4.04783565 2.04783565 6 4 C6.4140625 6.3828125 6.4140625 6.3828125 6.625 9.125 C6.69976562 10.03507813 6.77453125 10.94515625 6.8515625 11.8828125 C6.90054688 12.58148438 6.94953125 13.28015625 7 14 C6.67 14 6.34 14 6 14 C5.62875 12.1128125 5.62875 12.1128125 5.25 10.1875 C4.33698212 6.42957135 3.31163295 5.09736753 0 3 C0 2.01 0 1.02 0 0 Z " fill="#A2190F" transform="translate(238,146)"/>
<path d="M0 0 C0.66 0.33 1.32 0.66 2 1 C1.01 2.485 1.01 2.485 0 4 C-0.33 4.99 -0.66 5.98 -1 7 C-3.375 8.5625 -3.375 8.5625 -6 10 C-6.99 10.66 -7.98 11.32 -9 12 C-7.63055898 9.05043472 -6.12169591 6.47531189 -4 4 C-3.34 4 -2.68 4 -2 4 C-1.34 2.68 -0.68 1.36 0 0 Z " fill="#941D17" transform="translate(113,24)"/>
<path d="M0 0 C0 3.9519815 -1.37176172 5.14648416 -4 8 C-4.99 8.33 -5.98 8.66 -7 9 C-6.40112592 5.64630514 -5.27617653 3.53881228 -3 1 C-2.01 0.67 -1.02 0.34 0 0 Z " fill="#B6150D" transform="translate(195,100)"/>
<path d="M0 0 C0 3.26229641 -0.21770324 4.32655486 -2 7 C-5.125 9.25 -5.125 9.25 -8 11 C-6.63629701 8.00779732 -5.05091917 5.70973471 -2.875 3.25 C-2.33617187 2.63640625 -1.79734375 2.0228125 -1.2421875 1.390625 C-0.62730469 0.70226562 -0.62730469 0.70226562 0 0 Z " fill="#BF2016" transform="translate(154,211)"/>
<path d="M0 0 C0.99 0 1.98 0 3 0 C2.67 2.97 2.34 5.94 2 9 C1.34 9 0.68 9 0 9 C-0.33 10.32 -0.66 11.64 -1 13 C-0.67 8.71 -0.34 4.42 0 0 Z " fill="#F22F20" transform="translate(240,169)"/>
<path d="M0 0 C0.99 0 1.98 0 3 0 C3 0.99 3 1.98 3 3 C2.360625 3.61875 1.72125 4.2375 1.0625 4.875 C-1.27990815 7.28839022 -1.63515416 8.7163874 -2 12 C-2.33 12 -2.66 12 -3 12 C-3.28999491 7.07008655 -3.19703098 3.90748231 0 0 Z " fill="#D62212" transform="translate(171,147)"/>
<path d="M0 0 C0.66 0 1.32 0 2 0 C1.67 3.96 1.34 7.92 1 12 C-1 10 -1 10 -1.1875 6.5625 C-1 3 -1 3 0 0 Z " fill="#F22A1D" transform="translate(97,51)"/>
<path d="M0 0 C2.22825644 2.22825644 2.69239369 3.65761628 3.625 6.625 C4.01558594 7.85089844 4.01558594 7.85089844 4.4140625 9.1015625 C4.60742188 9.72804688 4.80078125 10.35453125 5 11 C4.01 11 3.02 11 2 11 C0.19769832 7.17010894 -0.19622241 4.21878192 0 0 Z " fill="#AA1911" transform="translate(198,37)"/>
<path d="M0 0 C0.91058531 3.07322544 1.08886184 5.80097361 1 9 C0.34 9 -0.32 9 -1 9 C-1 9.66 -1 10.32 -1 11 C-1.66 11 -2.32 11 -3 11 C-2.44894091 7.0507432 -1.61064629 3.65079826 0 0 Z " fill="#A21D14" transform="translate(55,147)"/>
<path d="M0 0 C1.5 1.3125 1.5 1.3125 3 3 C3 3.99 3 4.98 3 6 C1.02 6.66 -0.96 7.32 -3 8 C-2.67 7.01 -2.34 6.02 -2 5 C-1.34 5 -0.68 5 0 5 C-0.2784375 4.0409375 -0.2784375 4.0409375 -0.5625 3.0625 C-0.706875 2.381875 -0.85125 1.70125 -1 1 C-0.67 0.67 -0.34 0.34 0 0 Z " fill="#F12F21" transform="translate(104,96)"/>
<path d="M0 0 C1.32 0 2.64 0 4 0 C3.67 2.97 3.34 5.94 3 9 C0.87491756 5.81237635 0.4979837 3.73487777 0 0 Z " fill="#CD2B1E" transform="translate(200,48)"/>
<path d="M0 0 C-1.24976756 3.65316671 -1.67098753 4.78065836 -5 7 C-5.99 6.67 -6.98 6.34 -8 6 C-7.0479279 4.99403703 -6.08812654 3.99538437 -5.125 3 C-4.59132812 2.443125 -4.05765625 1.88625 -3.5078125 1.3125 C-2 0 -2 0 0 0 Z " fill="#DA140C" transform="translate(201,205)"/>
<path d="M0 0 C0.33 1.32 0.66 2.64 1 4 C-1.70879335 5.35439668 -4.00933268 5.06501451 -7 5 C-4.702779 3.25728062 -2.40133271 1.60088848 0 0 Z " fill="#DB2317" transform="translate(158,242)"/>
<path d="M0 0 C3.68754757 0.49831724 5.60490662 1.10067643 8 4 C6.68 4.33 5.36 4.66 4 5 C2.68 3.35 1.36 1.7 0 0 Z " fill="#C61F12" transform="translate(87,216)"/>
<path d="M0 0 C0.99 0 1.98 0 3 0 C2.01 2.97 1.02 5.94 0 9 C-0.33 9 -0.66 9 -1 9 C-0.67 6.03 -0.34 3.06 0 0 Z " fill="#B0170E" transform="translate(200,86)"/>
<path d="M0 0 C-0.33 0.99 -0.66 1.98 -1 3 C-3.64 2.67 -6.28 2.34 -9 2 C-5.5647952 -0.29013653 -4.014669 -0.17842973 0 0 Z " fill="#BE2317" transform="translate(141,12)"/>
<path d="M0 0 C0.66 0 1.32 0 2 0 C3.32 2.97 4.64 5.94 6 9 C5.01 9.495 5.01 9.495 4 10 C3.3310968 8.52184338 2.66493641 7.04244528 2 5.5625 C1.62875 4.73878906 1.2575 3.91507813 0.875 3.06640625 C0 1 0 1 0 0 Z " fill="#F4271B" transform="translate(76,198)"/>
<path d="M0 0 C0.66 0.66 1.32 1.32 2 2 C0.02 4.31 -1.96 6.62 -4 9 C-4.33 8.34 -4.66 7.68 -5 7 C-3.35 4.69 -1.7 2.38 0 0 Z " fill="#F32C1C" transform="translate(70,125)"/>
<path d="M0 0 C0.33 0.99 0.66 1.98 1 3 C-1 5 -1 5 -4.125 5.125 C-5.548125 5.063125 -5.548125 5.063125 -7 5 C-4.702779 3.25728062 -2.40133271 1.60088848 0 0 Z " fill="#DC2013" transform="translate(107,126)"/>
<path d="M0 0 C0.33 0.66 0.66 1.32 1 2 C0.34 2 -0.32 2 -1 2 C-1.33 2.99 -1.66 3.98 -2 5 C-3.98 5 -5.96 5 -8 5 C-5.44008376 2.98863724 -2.95409701 1.37154504 0 0 Z " fill="#851E16" transform="translate(103,99)"/>
<path d="M0 0 C0.98120464 3.05263664 0.98120464 4.94736336 0 8 C-0.66 8 -1.32 8 -2 8 C-2.33 8.99 -2.66 9.98 -3 11 C-2.44894091 7.0507432 -1.61064629 3.65079826 0 0 Z " fill="#841A12" transform="translate(99,43)"/>
</svg>
